<?xml version="1.0" encoding="utf-8" standalone="no"?>
<!DOCTYPE svg PUBLIC "-//W3C//DTD SVG 1.1//EN"
  "http://www.w3.org/Graphics/SVG/1.1/DTD/svg11.dtd">
<svg xmlns:xlink="http://www.w3.org/1999/xlink" width="405.369906pt" height="291.709016pt" viewBox="0 0 405.369906 291.709016" xmlns="http://www.w3.org/2000/svg" version="1.1">
 <metadata>
  <rdf:RDF xmlns:dc="http://purl.org/dc/elements/1.1/" xmlns:cc="http://creativecommons.org/ns#" xmlns:rdf="http://www.w3.org/1999/02/22-rdf-syntax-ns#">
   <cc:Work>
    <dc:type rdf:resource="http://purl.org/dc/dcmitype/StillImage"/>
    <dc:date>2026-08-03T11:57:39.927526</dc:date>
    <dc:format>image/svg+xml</dc:format>
    <dc:creator>
     <cc:Agent>
      <dc:title>Matplotlib v3.10.8, https://matplotlib.org/</dc:title>
     </cc:Agent>
    </dc:creator>
   </cc:Work>
  </rdf:RDF>
 </metadata>
 <defs>
  <style type="text/css">*{stroke-linejoin: round; stroke-linecap: butt}</style>
 </defs>
 <g id="figure_1">
  <g id="patch_1">
   <path d="M 0 291.709016 
L 405.369906 291.709016 
L 405.369906 0 
L 0 0 
z
" style="fill: #ffffff"/>
  </g>
  <g id="axes_1">
   <g id="patch_2">
    <path d="M 53.575 244.528391 
L 326.443146 244.528391 
L 326.443146 55.028891 
L 53.575 55.028891 
z
" style="fill: #ffffff"/>
   </g>
   <g id="FillBetweenPolyCollection_1">
    <defs>
     <path id="m0352980644" d="M 159.325552 -137.158573 
L 50.078832 -137.158573 
L 50.078832 -236.680125 
L 159.325552 -236.680125 
L 159.325552 -236.680125 
L 159.325552 -137.158573 
z
" style="stroke: #d4e6f1; stroke-opacity: 0.18"/>
    </defs>
    <g clip-path="url(#p898a8323bf)">
     <use xlink:href="#m0352980644" x="0" y="291.709016" style="fill: #d4e6f1; fill-opacity: 0.18; stroke: #d4e6f1; stroke-opacity: 0.18"/>
    </g>
   </g>
   <g id="matplotlib.axis_1">
    <g id="xtick_1">
     <g id="line2d_1">
      <defs>
       <path id="m6bdc2c0b4e" d="M 0 0 
L 0 6 
" style="stroke: #262626; stroke-width: 1.25"/>
      </defs>
      <g>
       <use xlink:href="#m6bdc2c0b4e" x="118.951206" y="244.528391" style="fill: #262626; stroke: #262626; stroke-width: 1.25"/>
      </g>
     </g>
     <g id="text_1">
      <!-- 25 -->
      <g style="fill: #262626" transform="translate(111.721987 263.333547) scale(0.13 -0.13)">
       <defs>
        <path id="Arial-BoldMT-32" d="M 3238 816 
L 3238 0 
L 159 0 
Q 209 463 459 877 
Q 709 1291 1447 1975 
Q 2041 2528 2175 2725 
Q 2356 2997 2356 3263 
Q 2356 3556 2198 3714 
Q 2041 3872 1763 3872 
Q 1488 3872 1325 3706 
Q 1163 3541 1138 3156 
L 263 3244 
Q 341 3969 753 4284 
Q 1166 4600 1784 4600 
Q 2463 4600 2850 4234 
Q 3238 3869 3238 3325 
Q 3238 3016 3127 2736 
Q 3016 2456 2775 2150 
Q 2616 1947 2200 1565 
Q 1784 1184 1673 1059 
Q 1563 934 1494 816 
L 3238 816 
z
" transform="scale(0.015625)"/>
        <path id="Arial-BoldMT-35" d="M 284 1178 
L 1159 1269 
Q 1197 972 1381 798 
Q 1566 625 1806 625 
Q 2081 625 2272 848 
Q 2463 1072 2463 1522 
Q 2463 1944 2273 2155 
Q 2084 2366 1781 2366 
Q 1403 2366 1103 2031 
L 391 2134 
L 841 4519 
L 3163 4519 
L 3163 3697 
L 1506 3697 
L 1369 2919 
Q 1663 3066 1969 3066 
Q 2553 3066 2959 2641 
Q 3366 2216 3366 1538 
Q 3366 972 3038 528 
Q 2591 -78 1797 -78 
Q 1163 -78 763 262 
Q 363 603 284 1178 
z
" transform="scale(0.015625)"/>
       </defs>
       <use xlink:href="#Arial-BoldMT-32"/>
       <use xlink:href="#Arial-BoldMT-35" transform="translate(55.615234 0)"/>
      </g>
     </g>
    </g>
    <g id="xtick_2">
     <g id="line2d_2">
      <g>
       <use xlink:href="#m6bdc2c0b4e" x="206.355407" y="244.528391" style="fill: #262626; stroke: #262626; stroke-width: 1.25"/>
      </g>
     </g>
     <g id="text_2">
      <!-- 30 -->
      <g style="fill: #262626" transform="translate(199.126188 263.333547) scale(0.13 -0.13)">
       <defs>
        <path id="Arial-BoldMT-33" d="M 241 1216 
L 1091 1319 
Q 1131 994 1309 822 
Q 1488 650 1741 650 
Q 2013 650 2198 856 
Q 2384 1063 2384 1413 
Q 2384 1744 2206 1937 
Q 2028 2131 1772 2131 
Q 1603 2131 1369 2066 
L 1466 2781 
Q 1822 2772 2009 2936 
Q 2197 3100 2197 3372 
Q 2197 3603 2059 3740 
Q 1922 3878 1694 3878 
Q 1469 3878 1309 3722 
Q 1150 3566 1116 3266 
L 306 3403 
Q 391 3819 561 4067 
Q 731 4316 1036 4458 
Q 1341 4600 1719 4600 
Q 2366 4600 2756 4188 
Q 3078 3850 3078 3425 
Q 3078 2822 2419 2463 
Q 2813 2378 3048 2084 
Q 3284 1791 3284 1375 
Q 3284 772 2843 347 
Q 2403 -78 1747 -78 
Q 1125 -78 715 280 
Q 306 638 241 1216 
z
" transform="scale(0.015625)"/>
        <path id="Arial-BoldMT-30" d="M 1756 4600 
Q 2422 4600 2797 4125 
Q 3244 3563 3244 2259 
Q 3244 959 2794 391 
Q 2422 -78 1756 -78 
Q 1088 -78 678 436 
Q 269 950 269 2269 
Q 269 3563 719 4131 
Q 1091 4600 1756 4600 
z
M 1756 3872 
Q 1597 3872 1472 3770 
Q 1347 3669 1278 3406 
Q 1188 3066 1188 2259 
Q 1188 1453 1269 1151 
Q 1350 850 1473 750 
Q 1597 650 1756 650 
Q 1916 650 2041 751 
Q 2166 853 2234 1116 
Q 2325 1453 2325 2259 
Q 2325 3066 2244 3367 
Q 2163 3669 2039 3770 
Q 1916 3872 1756 3872 
z
" transform="scale(0.015625)"/>
       </defs>
       <use xlink:href="#Arial-BoldMT-33"/>
       <use xlink:href="#Arial-BoldMT-30" transform="translate(55.615234 0)"/>
      </g>
     </g>
    </g>
    <g id="xtick_3">
     <g id="line2d_3">
      <g>
       <use xlink:href="#m6bdc2c0b4e" x="293.759608" y="244.528391" style="fill: #262626; stroke: #262626; stroke-width: 1.25"/>
      </g>
     </g>
     <g id="text_3">
      <!-- 35 -->
      <g style="fill: #262626" transform="translate(286.530389 263.333547) scale(0.13 -0.13)">
       <use xlink:href="#Arial-BoldMT-33"/>
       <use xlink:href="#Arial-BoldMT-35" transform="translate(55.615234 0)"/>
      </g>
     </g>
    </g>
    <g id="text_4">
     <!-- EV mean Ct -->
     <g style="fill: #262626" transform="translate(145.552823 281.351516) scale(0.16 -0.16)">
      <defs>
       <path id="Arial-BoldMT-45" d="M 466 0 
L 466 4581 
L 3863 4581 
L 3863 3806 
L 1391 3806 
L 1391 2791 
L 3691 2791 
L 3691 2019 
L 1391 2019 
L 1391 772 
L 3950 772 
L 3950 0 
L 466 0 
z
" transform="scale(0.015625)"/>
       <path id="Arial-BoldMT-56" d="M 1634 0 
L -3 4581 
L 1000 4581 
L 2159 1191 
L 3281 4581 
L 4263 4581 
L 2622 0 
L 1634 0 
z
" transform="scale(0.015625)"/>
       <path id="Arial-BoldMT-20" transform="scale(0.015625)"/>
       <path id="Arial-BoldMT-6d" d="M 394 3319 
L 1203 3319 
L 1203 2866 
Q 1638 3394 2238 3394 
Q 2556 3394 2790 3262 
Q 3025 3131 3175 2866 
Q 3394 3131 3647 3262 
Q 3900 3394 4188 3394 
Q 4553 3394 4806 3245 
Q 5059 3097 5184 2809 
Q 5275 2597 5275 2122 
L 5275 0 
L 4397 0 
L 4397 1897 
Q 4397 2391 4306 2534 
Q 4184 2722 3931 2722 
Q 3747 2722 3584 2609 
Q 3422 2497 3350 2280 
Q 3278 2063 3278 1594 
L 3278 0 
L 2400 0 
L 2400 1819 
Q 2400 2303 2353 2443 
Q 2306 2584 2207 2653 
Q 2109 2722 1941 2722 
Q 1738 2722 1575 2612 
Q 1413 2503 1342 2297 
Q 1272 2091 1272 1613 
L 1272 0 
L 394 0 
L 394 3319 
z
" transform="scale(0.015625)"/>
       <path id="Arial-BoldMT-65" d="M 2381 1056 
L 3256 909 
Q 3088 428 2723 176 
Q 2359 -75 1813 -75 
Q 947 -75 531 491 
Q 203 944 203 1634 
Q 203 2459 634 2926 
Q 1066 3394 1725 3394 
Q 2466 3394 2894 2905 
Q 3322 2416 3303 1406 
L 1103 1406 
Q 1113 1016 1316 798 
Q 1519 581 1822 581 
Q 2028 581 2168 693 
Q 2309 806 2381 1056 
z
M 2431 1944 
Q 2422 2325 2234 2523 
Q 2047 2722 1778 2722 
Q 1491 2722 1303 2513 
Q 1116 2303 1119 1944 
L 2431 1944 
z
" transform="scale(0.015625)"/>
       <path id="Arial-BoldMT-61" d="M 1116 2306 
L 319 2450 
Q 453 2931 781 3162 
Q 1109 3394 1756 3394 
Q 2344 3394 2631 3255 
Q 2919 3116 3036 2902 
Q 3153 2688 3153 2116 
L 3144 1091 
Q 3144 653 3186 445 
Q 3228 238 3344 0 
L 2475 0 
Q 2441 88 2391 259 
Q 2369 338 2359 363 
Q 2134 144 1878 34 
Q 1622 -75 1331 -75 
Q 819 -75 523 203 
Q 228 481 228 906 
Q 228 1188 362 1408 
Q 497 1628 739 1745 
Q 981 1863 1438 1950 
Q 2053 2066 2291 2166 
L 2291 2253 
Q 2291 2506 2166 2614 
Q 2041 2722 1694 2722 
Q 1459 2722 1328 2630 
Q 1197 2538 1116 2306 
z
M 2291 1594 
Q 2122 1538 1756 1459 
Q 1391 1381 1278 1306 
Q 1106 1184 1106 997 
Q 1106 813 1243 678 
Q 1381 544 1594 544 
Q 1831 544 2047 700 
Q 2206 819 2256 991 
Q 2291 1103 2291 1419 
L 2291 1594 
z
" transform="scale(0.015625)"/>
       <path id="Arial-BoldMT-6e" d="M 3478 0 
L 2600 0 
L 2600 1694 
Q 2600 2231 2544 2389 
Q 2488 2547 2361 2634 
Q 2234 2722 2056 2722 
Q 1828 2722 1647 2597 
Q 1466 2472 1398 2265 
Q 1331 2059 1331 1503 
L 1331 0 
L 453 0 
L 453 3319 
L 1269 3319 
L 1269 2831 
Q 1703 3394 2363 3394 
Q 2653 3394 2893 3289 
Q 3134 3184 3257 3021 
Q 3381 2859 3429 2653 
Q 3478 2447 3478 2063 
L 3478 0 
z
" transform="scale(0.015625)"/>
       <path id="Arial-BoldMT-43" d="M 3397 1684 
L 4294 1400 
Q 4088 650 3608 286 
Q 3128 -78 2391 -78 
Q 1478 -78 890 545 
Q 303 1169 303 2250 
Q 303 3394 893 4026 
Q 1484 4659 2447 4659 
Q 3288 4659 3813 4163 
Q 4125 3869 4281 3319 
L 3366 3100 
Q 3284 3456 3026 3662 
Q 2769 3869 2400 3869 
Q 1891 3869 1573 3503 
Q 1256 3138 1256 2319 
Q 1256 1450 1568 1081 
Q 1881 713 2381 713 
Q 2750 713 3015 947 
Q 3281 1181 3397 1684 
z
" transform="scale(0.015625)"/>
       <path id="Arial-BoldMT-74" d="M 1981 3319 
L 1981 2619 
L 1381 2619 
L 1381 1281 
Q 1381 875 1398 808 
Q 1416 741 1477 697 
Q 1538 653 1625 653 
Q 1747 653 1978 738 
L 2053 56 
Q 1747 -75 1359 -75 
Q 1122 -75 931 4 
Q 741 84 652 211 
Q 563 338 528 553 
Q 500 706 500 1172 
L 500 2619 
L 97 2619 
L 97 3319 
L 500 3319 
L 500 3978 
L 1381 4491 
L 1381 3319 
L 1981 3319 
z
" transform="scale(0.015625)"/>
      </defs>
      <use xlink:href="#Arial-BoldMT-45"/>
      <use xlink:href="#Arial-BoldMT-56" transform="translate(66.699219 0)"/>
      <use xlink:href="#Arial-BoldMT-20" transform="translate(133.398438 0)"/>
      <use xlink:href="#Arial-BoldMT-6d" transform="translate(161.181641 0)"/>
      <use xlink:href="#Arial-BoldMT-65" transform="translate(250.097656 0)"/>
      <use xlink:href="#Arial-BoldMT-61" transform="translate(305.712891 0)"/>
      <use xlink:href="#Arial-BoldMT-6e" transform="translate(361.328125 0)"/>
      <use xlink:href="#Arial-BoldMT-20" transform="translate(422.412109 0)"/>
      <use xlink:href="#Arial-BoldMT-43" transform="translate(450.195312 0)"/>
      <use xlink:href="#Arial-BoldMT-74" transform="translate(522.412109 0)"/>
     </g>
    </g>
   </g>
   <g id="matplotlib.axis_2">
    <g id="ytick_1">
     <g id="line2d_4">
      <defs>
       <path id="ma30e6099ab" d="M 0 0 
L -6 0 
" style="stroke: #262626; stroke-width: 1.25"/>
      </defs>
      <g>
       <use xlink:href="#ma30e6099ab" x="53.575" y="239.264516" style="fill: #262626; stroke: #262626; stroke-width: 1.25"/>
      </g>
     </g>
     <g id="text_5">
      <!-- 0.0 -->
      <g style="fill: #262626" transform="translate(26.005 243.917094) scale(0.13 -0.13)">
       <defs>
        <path id="Arial-BoldMT-2e" d="M 459 0 
L 459 878 
L 1338 878 
L 1338 0 
L 459 0 
z
" transform="scale(0.015625)"/>
       </defs>
       <use xlink:href="#Arial-BoldMT-30"/>
       <use xlink:href="#Arial-BoldMT-2e" transform="translate(55.615234 0)"/>
       <use xlink:href="#Arial-BoldMT-30" transform="translate(83.398438 0)"/>
      </g>
     </g>
    </g>
    <g id="ytick_2">
     <g id="line2d_5">
      <g>
       <use xlink:href="#ma30e6099ab" x="53.575" y="204.172016" style="fill: #262626; stroke: #262626; stroke-width: 1.25"/>
      </g>
     </g>
     <g id="text_6">
      <!-- 0.2 -->
      <g style="fill: #262626" transform="translate(26.005 208.824594) scale(0.13 -0.13)">
       <use xlink:href="#Arial-BoldMT-30"/>
       <use xlink:href="#Arial-BoldMT-2e" transform="translate(55.615234 0)"/>
       <use xlink:href="#Arial-BoldMT-32" transform="translate(83.398438 0)"/>
      </g>
     </g>
    </g>
    <g id="ytick_3">
     <g id="line2d_6">
      <g>
       <use xlink:href="#ma30e6099ab" x="53.575" y="169.079516" style="fill: #262626; stroke: #262626; stroke-width: 1.25"/>
      </g>
     </g>
     <g id="text_7">
      <!-- 0.4 -->
      <g style="fill: #262626" transform="translate(26.005 173.732094) scale(0.13 -0.13)">
       <defs>
        <path id="Arial-BoldMT-34" d="M 1994 0 
L 1994 922 
L 119 922 
L 119 1691 
L 2106 4600 
L 2844 4600 
L 2844 1694 
L 3413 1694 
L 3413 922 
L 2844 922 
L 2844 0 
L 1994 0 
z
M 1994 1694 
L 1994 3259 
L 941 1694 
L 1994 1694 
z
" transform="scale(0.015625)"/>
       </defs>
       <use xlink:href="#Arial-BoldMT-30"/>
       <use xlink:href="#Arial-BoldMT-2e" transform="translate(55.615234 0)"/>
       <use xlink:href="#Arial-BoldMT-34" transform="translate(83.398438 0)"/>
      </g>
     </g>
    </g>
    <g id="ytick_4">
     <g id="line2d_7">
      <g>
       <use xlink:href="#ma30e6099ab" x="53.575" y="133.987016" style="fill: #262626; stroke: #262626; stroke-width: 1.25"/>
      </g>
     </g>
     <g id="text_8">
      <!-- 0.6 -->
      <g style="fill: #262626" transform="translate(26.005 138.639594) scale(0.13 -0.13)">
       <defs>
        <path id="Arial-BoldMT-36" d="M 3247 3459 
L 2397 3366 
Q 2366 3628 2234 3753 
Q 2103 3878 1894 3878 
Q 1616 3878 1423 3628 
Q 1231 3378 1181 2588 
Q 1509 2975 1997 2975 
Q 2547 2975 2939 2556 
Q 3331 2138 3331 1475 
Q 3331 772 2918 347 
Q 2506 -78 1859 -78 
Q 1166 -78 719 461 
Q 272 1000 272 2228 
Q 272 3488 737 4044 
Q 1203 4600 1947 4600 
Q 2469 4600 2811 4308 
Q 3153 4016 3247 3459 
z
M 1256 1544 
Q 1256 1116 1453 883 
Q 1650 650 1903 650 
Q 2147 650 2309 840 
Q 2472 1031 2472 1466 
Q 2472 1913 2297 2120 
Q 2122 2328 1859 2328 
Q 1606 2328 1431 2129 
Q 1256 1931 1256 1544 
z
" transform="scale(0.015625)"/>
       </defs>
       <use xlink:href="#Arial-BoldMT-30"/>
       <use xlink:href="#Arial-BoldMT-2e" transform="translate(55.615234 0)"/>
       <use xlink:href="#Arial-BoldMT-36" transform="translate(83.398438 0)"/>
      </g>
     </g>
    </g>
    <g id="ytick_5">
     <g id="line2d_8">
      <g>
       <use xlink:href="#ma30e6099ab" x="53.575" y="98.894516" style="fill: #262626; stroke: #262626; stroke-width: 1.25"/>
      </g>
     </g>
     <g id="text_9">
      <!-- 0.8 -->
      <g style="fill: #262626" transform="translate(26.005 103.547094) scale(0.13 -0.13)">
       <defs>
        <path id="Arial-BoldMT-38" d="M 1025 2472 
Q 684 2616 529 2867 
Q 375 3119 375 3419 
Q 375 3931 733 4265 
Q 1091 4600 1750 4600 
Q 2403 4600 2764 4265 
Q 3125 3931 3125 3419 
Q 3125 3100 2959 2851 
Q 2794 2603 2494 2472 
Q 2875 2319 3073 2025 
Q 3272 1731 3272 1347 
Q 3272 713 2867 316 
Q 2463 -81 1791 -81 
Q 1166 -81 750 247 
Q 259 634 259 1309 
Q 259 1681 443 1992 
Q 628 2303 1025 2472 
z
M 1206 3356 
Q 1206 3094 1354 2947 
Q 1503 2800 1750 2800 
Q 2000 2800 2150 2948 
Q 2300 3097 2300 3359 
Q 2300 3606 2151 3754 
Q 2003 3903 1759 3903 
Q 1506 3903 1356 3753 
Q 1206 3603 1206 3356 
z
M 1125 1394 
Q 1125 1031 1311 828 
Q 1497 625 1775 625 
Q 2047 625 2225 820 
Q 2403 1016 2403 1384 
Q 2403 1706 2222 1901 
Q 2041 2097 1763 2097 
Q 1441 2097 1283 1875 
Q 1125 1653 1125 1394 
z
" transform="scale(0.015625)"/>
       </defs>
       <use xlink:href="#Arial-BoldMT-30"/>
       <use xlink:href="#Arial-BoldMT-2e" transform="translate(55.615234 0)"/>
       <use xlink:href="#Arial-BoldMT-38" transform="translate(83.398438 0)"/>
      </g>
     </g>
    </g>
    <g id="ytick_6">
     <g id="line2d_9">
      <g>
       <use xlink:href="#ma30e6099ab" x="53.575" y="63.802016" style="fill: #262626; stroke: #262626; stroke-width: 1.25"/>
      </g>
     </g>
     <g id="text_10">
      <!-- 1.0 -->
      <g style="fill: #262626" transform="translate(26.005 68.454594) scale(0.13 -0.13)">
       <defs>
        <path id="Arial-BoldMT-31" d="M 2519 0 
L 1641 0 
L 1641 3309 
Q 1159 2859 506 2644 
L 506 3441 
Q 850 3553 1253 3867 
Q 1656 4181 1806 4600 
L 2519 4600 
L 2519 0 
z
" transform="scale(0.015625)"/>
       </defs>
       <use xlink:href="#Arial-BoldMT-31"/>
       <use xlink:href="#Arial-BoldMT-2e" transform="translate(55.615234 0)"/>
       <use xlink:href="#Arial-BoldMT-30" transform="translate(83.398438 0)"/>
      </g>
     </g>
    </g>
    <g id="text_11">
     <!-- Normalized qPCR EV enrichment -->
     <g style="fill: #262626" transform="translate(18.8475 275.134891) rotate(-90) scale(0.16 -0.16)">
      <defs>
       <path id="Arial-BoldMT-4e" d="M 475 0 
L 475 4581 
L 1375 4581 
L 3250 1522 
L 3250 4581 
L 4109 4581 
L 4109 0 
L 3181 0 
L 1334 2988 
L 1334 0 
L 475 0 
z
" transform="scale(0.015625)"/>
       <path id="Arial-BoldMT-6f" d="M 256 1706 
Q 256 2144 472 2553 
Q 688 2963 1083 3178 
Q 1478 3394 1966 3394 
Q 2719 3394 3200 2905 
Q 3681 2416 3681 1669 
Q 3681 916 3195 420 
Q 2709 -75 1972 -75 
Q 1516 -75 1102 131 
Q 688 338 472 736 
Q 256 1134 256 1706 
z
M 1156 1659 
Q 1156 1166 1390 903 
Q 1625 641 1969 641 
Q 2313 641 2545 903 
Q 2778 1166 2778 1666 
Q 2778 2153 2545 2415 
Q 2313 2678 1969 2678 
Q 1625 2678 1390 2415 
Q 1156 2153 1156 1659 
z
" transform="scale(0.015625)"/>
       <path id="Arial-BoldMT-72" d="M 1300 0 
L 422 0 
L 422 3319 
L 1238 3319 
L 1238 2847 
Q 1447 3181 1614 3287 
Q 1781 3394 1994 3394 
Q 2294 3394 2572 3228 
L 2300 2463 
Q 2078 2606 1888 2606 
Q 1703 2606 1575 2504 
Q 1447 2403 1373 2137 
Q 1300 1872 1300 1025 
L 1300 0 
z
" transform="scale(0.015625)"/>
       <path id="Arial-BoldMT-6c" d="M 459 0 
L 459 4581 
L 1338 4581 
L 1338 0 
L 459 0 
z
" transform="scale(0.015625)"/>
       <path id="Arial-BoldMT-69" d="M 459 3769 
L 459 4581 
L 1338 4581 
L 1338 3769 
L 459 3769 
z
M 459 0 
L 459 3319 
L 1338 3319 
L 1338 0 
L 459 0 
z
" transform="scale(0.015625)"/>
       <path id="Arial-BoldMT-7a" d="M 106 0 
L 106 684 
L 1350 2113 
Q 1656 2463 1803 2609 
Q 1650 2600 1400 2597 
L 228 2591 
L 228 3319 
L 2972 3319 
L 2972 2697 
L 1703 1234 
L 1256 750 
Q 1622 772 1709 772 
L 3069 772 
L 3069 0 
L 106 0 
z
" transform="scale(0.015625)"/>
       <path id="Arial-BoldMT-64" d="M 3503 0 
L 2688 0 
L 2688 488 
Q 2484 203 2207 64 
Q 1931 -75 1650 -75 
Q 1078 -75 670 386 
Q 263 847 263 1672 
Q 263 2516 659 2955 
Q 1056 3394 1663 3394 
Q 2219 3394 2625 2931 
L 2625 4581 
L 3503 4581 
L 3503 0 
z
M 1159 1731 
Q 1159 1200 1306 963 
Q 1519 619 1900 619 
Q 2203 619 2415 876 
Q 2628 1134 2628 1647 
Q 2628 2219 2422 2470 
Q 2216 2722 1894 2722 
Q 1581 2722 1370 2473 
Q 1159 2225 1159 1731 
z
" transform="scale(0.015625)"/>
       <path id="Arial-BoldMT-71" d="M 2628 -1263 
L 2628 406 
Q 2456 184 2200 54 
Q 1944 -75 1647 -75 
Q 1081 -75 716 350 
Q 284 847 284 1697 
Q 284 2497 689 2945 
Q 1094 3394 1694 3394 
Q 2025 3394 2267 3253 
Q 2509 3113 2697 2828 
L 2697 3319 
L 3506 3319 
L 3506 -1263 
L 2628 -1263 
z
M 2656 1700 
Q 2656 2209 2448 2457 
Q 2241 2706 1928 2706 
Q 1609 2706 1395 2453 
Q 1181 2200 1181 1650 
Q 1181 1103 1387 861 
Q 1594 619 1897 619 
Q 2200 619 2428 891 
Q 2656 1163 2656 1700 
z
" transform="scale(0.015625)"/>
       <path id="Arial-BoldMT-50" d="M 466 0 
L 466 4581 
L 1950 4581 
Q 2794 4581 3050 4513 
Q 3444 4409 3709 4064 
Q 3975 3719 3975 3172 
Q 3975 2750 3822 2462 
Q 3669 2175 3433 2011 
Q 3197 1847 2953 1794 
Q 2622 1728 1994 1728 
L 1391 1728 
L 1391 0 
L 466 0 
z
M 1391 3806 
L 1391 2506 
L 1897 2506 
Q 2444 2506 2628 2578 
Q 2813 2650 2917 2803 
Q 3022 2956 3022 3159 
Q 3022 3409 2875 3571 
Q 2728 3734 2503 3775 
Q 2338 3806 1838 3806 
L 1391 3806 
z
" transform="scale(0.015625)"/>
       <path id="Arial-BoldMT-52" d="M 469 0 
L 469 4581 
L 2416 4581 
Q 3150 4581 3483 4457 
Q 3816 4334 4016 4018 
Q 4216 3703 4216 3297 
Q 4216 2781 3912 2445 
Q 3609 2109 3006 2022 
Q 3306 1847 3501 1637 
Q 3697 1428 4028 894 
L 4588 0 
L 3481 0 
L 2813 997 
Q 2456 1531 2325 1670 
Q 2194 1809 2047 1861 
Q 1900 1913 1581 1913 
L 1394 1913 
L 1394 0 
L 469 0 
z
M 1394 2644 
L 2078 2644 
Q 2744 2644 2909 2700 
Q 3075 2756 3169 2893 
Q 3263 3031 3263 3238 
Q 3263 3469 3139 3611 
Q 3016 3753 2791 3791 
Q 2678 3806 2116 3806 
L 1394 3806 
L 1394 2644 
z
" transform="scale(0.015625)"/>
       <path id="Arial-BoldMT-63" d="M 3353 2338 
L 2488 2181 
Q 2444 2441 2289 2572 
Q 2134 2703 1888 2703 
Q 1559 2703 1364 2476 
Q 1169 2250 1169 1719 
Q 1169 1128 1367 884 
Q 1566 641 1900 641 
Q 2150 641 2309 783 
Q 2469 925 2534 1272 
L 3397 1125 
Q 3263 531 2881 228 
Q 2500 -75 1859 -75 
Q 1131 -75 698 384 
Q 266 844 266 1656 
Q 266 2478 700 2936 
Q 1134 3394 1875 3394 
Q 2481 3394 2839 3133 
Q 3197 2872 3353 2338 
z
" transform="scale(0.015625)"/>
       <path id="Arial-BoldMT-68" d="M 1334 4581 
L 1334 2897 
Q 1759 3394 2350 3394 
Q 2653 3394 2897 3281 
Q 3141 3169 3264 2994 
Q 3388 2819 3433 2606 
Q 3478 2394 3478 1947 
L 3478 0 
L 2600 0 
L 2600 1753 
Q 2600 2275 2550 2415 
Q 2500 2556 2373 2639 
Q 2247 2722 2056 2722 
Q 1838 2722 1666 2615 
Q 1494 2509 1414 2295 
Q 1334 2081 1334 1663 
L 1334 0 
L 456 0 
L 456 4581 
L 1334 4581 
z
" transform="scale(0.015625)"/>
      </defs>
      <use xlink:href="#Arial-BoldMT-4e"/>
      <use xlink:href="#Arial-BoldMT-6f" transform="translate(72.216797 0)"/>
      <use xlink:href="#Arial-BoldMT-72" transform="translate(133.300781 0)"/>
      <use xlink:href="#Arial-BoldMT-6d" transform="translate(172.216797 0)"/>
      <use xlink:href="#Arial-BoldMT-61" transform="translate(261.132812 0)"/>
      <use xlink:href="#Arial-BoldMT-6c" transform="translate(316.748047 0)"/>
      <use xlink:href="#Arial-BoldMT-69" transform="translate(344.53125 0)"/>
      <use xlink:href="#Arial-BoldMT-7a" transform="translate(372.314453 0)"/>
      <use xlink:href="#Arial-BoldMT-65" transform="translate(422.314453 0)"/>
      <use xlink:href="#Arial-BoldMT-64" transform="translate(477.929688 0)"/>
      <use xlink:href="#Arial-BoldMT-20" transform="translate(539.013672 0)"/>
      <use xlink:href="#Arial-BoldMT-71" transform="translate(566.796875 0)"/>
      <use xlink:href="#Arial-BoldMT-50" transform="translate(627.880859 0)"/>
      <use xlink:href="#Arial-BoldMT-43" transform="translate(694.580078 0)"/>
      <use xlink:href="#Arial-BoldMT-52" transform="translate(766.796875 0)"/>
      <use xlink:href="#Arial-BoldMT-20" transform="translate(839.013672 0)"/>
      <use xlink:href="#Arial-BoldMT-45" transform="translate(866.796875 0)"/>
      <use xlink:href="#Arial-BoldMT-56" transform="translate(933.496094 0)"/>
      <use xlink:href="#Arial-BoldMT-20" transform="translate(1000.195312 0)"/>
      <use xlink:href="#Arial-BoldMT-65" transform="translate(1027.978516 0)"/>
      <use xlink:href="#Arial-BoldMT-6e" transform="translate(1083.59375 0)"/>
      <use xlink:href="#Arial-BoldMT-72" transform="translate(1144.677734 0)"/>
      <use xlink:href="#Arial-BoldMT-69" transform="translate(1183.59375 0)"/>
      <use xlink:href="#Arial-BoldMT-63" transform="translate(1211.376953 0)"/>
      <use xlink:href="#Arial-BoldMT-68" transform="translate(1266.992188 0)"/>
      <use xlink:href="#Arial-BoldMT-6d" transform="translate(1328.076172 0)"/>
      <use xlink:href="#Arial-BoldMT-65" transform="translate(1416.992188 0)"/>
      <use xlink:href="#Arial-BoldMT-6e" transform="translate(1472.607422 0)"/>
      <use xlink:href="#Arial-BoldMT-74" transform="translate(1533.691406 0)"/>
     </g>
    </g>
   </g>
   <g id="line2d_10">
    <path d="M 159.325552 244.528391 
L 159.325552 55.028891 
" clip-path="url(#p898a8323bf)" style="fill: none; stroke-dasharray: 1.7,2.805; stroke-dashoffset: 0; stroke: #000000; stroke-width: 1.7"/>
   </g>
   <g id="line2d_11">
    <path d="M 53.575 154.550444 
L 326.443146 154.550444 
" clip-path="url(#p898a8323bf)" style="fill: none; stroke-dasharray: 1.7,2.805; stroke-dashoffset: 0; stroke: #000000; stroke-width: 1.7"/>
   </g>
   <g id="patch_3">
    <path d="M 53.575 244.528391 
L 53.575 55.028891 
" style="fill: none; stroke: #262626; stroke-width: 1.25; stroke-linejoin: miter; stroke-linecap: square"/>
   </g>
   <g id="patch_4">
    <path d="M 53.575 244.528391 
L 326.443146 244.528391 
" style="fill: none; stroke: #262626; stroke-width: 1.25; stroke-linejoin: miter; stroke-linecap: square"/>
   </g>
   <g id="PathCollection_1">
    <defs>
     <path id="mc8a866f007" d="M 0 3.937004 
C 1.044106 3.937004 2.045588 3.522176 2.783882 2.783882 
C 3.522176 2.045588 3.937004 1.044106 3.937004 0 
C 3.937004 -1.044106 3.522176 -2.045588 2.783882 -2.783882 
C 2.045588 -3.522176 1.044106 -3.937004 0 -3.937004 
C -1.044106 -3.937004 -2.045588 -3.522176 -2.783882 -2.783882 
C -3.522176 -2.045588 -3.937004 -1.044106 -3.937004 0 
C -3.937004 1.044106 -3.522176 2.045588 -2.783882 2.783882 
C -2.045588 3.522176 -1.044106 3.937004 0 3.937004 
z
" style="stroke: #000000; stroke-opacity: 0.95; stroke-width: 0.55"/>
    </defs>
    <g clip-path="url(#p898a8323bf)">
     <use xlink:href="#mc8a866f007" x="210.242174" y="161.567412" style="fill: #a7bfd6; fill-opacity: 0.95; stroke: #000000; stroke-opacity: 0.95; stroke-width: 0.55"/>
    </g>
   </g>
   <g id="text_12">
    <!-- hsa_circ_0000788 -->
    <g style="fill: #262626" transform="translate(215.13681 176.481724) scale(0.095 -0.095)">
     <defs>
      <path id="Arial-BoldMT-73" d="M 150 947 
L 1031 1081 
Q 1088 825 1259 692 
Q 1431 559 1741 559 
Q 2081 559 2253 684 
Q 2369 772 2369 919 
Q 2369 1019 2306 1084 
Q 2241 1147 2013 1200 
Q 950 1434 666 1628 
Q 272 1897 272 2375 
Q 272 2806 612 3100 
Q 953 3394 1669 3394 
Q 2350 3394 2681 3172 
Q 3013 2950 3138 2516 
L 2309 2363 
Q 2256 2556 2107 2659 
Q 1959 2763 1684 2763 
Q 1338 2763 1188 2666 
Q 1088 2597 1088 2488 
Q 1088 2394 1175 2328 
Q 1294 2241 1995 2081 
Q 2697 1922 2975 1691 
Q 3250 1456 3250 1038 
Q 3250 581 2869 253 
Q 2488 -75 1741 -75 
Q 1063 -75 667 200 
Q 272 475 150 947 
z
" transform="scale(0.015625)"/>
      <path id="Arial-BoldMT-5f" d="M -59 -1266 
L -59 -697 
L 3591 -697 
L 3591 -1266 
L -59 -1266 
z
" transform="scale(0.015625)"/>
      <path id="Arial-BoldMT-37" d="M 272 3703 
L 272 4519 
L 3275 4519 
L 3275 3881 
Q 2903 3516 2518 2831 
Q 2134 2147 1932 1376 
Q 1731 606 1734 0 
L 888 0 
Q 909 950 1279 1937 
Q 1650 2925 2269 3703 
L 272 3703 
z
" transform="scale(0.015625)"/>
     </defs>
     <use xlink:href="#Arial-BoldMT-68"/>
     <use xlink:href="#Arial-BoldMT-73" transform="translate(61.083984 0)"/>
     <use xlink:href="#Arial-BoldMT-61" transform="translate(116.699219 0)"/>
     <use xlink:href="#Arial-BoldMT-5f" transform="translate(172.314453 0)"/>
     <use xlink:href="#Arial-BoldMT-63" transform="translate(227.929688 0)"/>
     <use xlink:href="#Arial-BoldMT-69" transform="translate(283.544922 0)"/>
     <use xlink:href="#Arial-BoldMT-72" transform="translate(311.328125 0)"/>
     <use xlink:href="#Arial-BoldMT-63" transform="translate(350.244141 0)"/>
     <use xlink:href="#Arial-BoldMT-5f" transform="translate(405.859375 0)"/>
     <use xlink:href="#Arial-BoldMT-30" transform="translate(461.474609 0)"/>
     <use xlink:href="#Arial-BoldMT-30" transform="translate(517.089844 0)"/>
     <use xlink:href="#Arial-BoldMT-30" transform="translate(572.705078 0)"/>
     <use xlink:href="#Arial-BoldMT-30" transform="translate(628.320312 0)"/>
     <use xlink:href="#Arial-BoldMT-37" transform="translate(683.935547 0)"/>
     <use xlink:href="#Arial-BoldMT-38" transform="translate(739.550781 0)"/>
     <use xlink:href="#Arial-BoldMT-38" transform="translate(795.166016 0)"/>
    </g>
   </g>
   <g id="PathCollection_2">
    <g clip-path="url(#p898a8323bf)">
     <use xlink:href="#mc8a866f007" x="190.717435" y="161.504" style="fill: #a7bfd6; fill-opacity: 0.95; stroke: #000000; stroke-opacity: 0.95; stroke-width: 0.55"/>
    </g>
   </g>
   <g id="text_13">
    <!-- hsa_circ_0001336 -->
    <g style="fill: #262626" transform="translate(196.83573 144.835062) scale(0.095 -0.095)">
     <use xlink:href="#Arial-BoldMT-68"/>
     <use xlink:href="#Arial-BoldMT-73" transform="translate(61.083984 0)"/>
     <use xlink:href="#Arial-BoldMT-61" transform="translate(116.699219 0)"/>
     <use xlink:href="#Arial-BoldMT-5f" transform="translate(172.314453 0)"/>
     <use xlink:href="#Arial-BoldMT-63" transform="translate(227.929688 0)"/>
     <use xlink:href="#Arial-BoldMT-69" transform="translate(283.544922 0)"/>
     <use xlink:href="#Arial-BoldMT-72" transform="translate(311.328125 0)"/>
     <use xlink:href="#Arial-BoldMT-63" transform="translate(350.244141 0)"/>
     <use xlink:href="#Arial-BoldMT-5f" transform="translate(405.859375 0)"/>
     <use xlink:href="#Arial-BoldMT-30" transform="translate(461.474609 0)"/>
     <use xlink:href="#Arial-BoldMT-30" transform="translate(517.089844 0)"/>
     <use xlink:href="#Arial-BoldMT-30" transform="translate(572.705078 0)"/>
     <use xlink:href="#Arial-BoldMT-31" transform="translate(628.320312 0)"/>
     <use xlink:href="#Arial-BoldMT-33" transform="translate(683.935547 0)"/>
     <use xlink:href="#Arial-BoldMT-33" transform="translate(739.550781 0)"/>
     <use xlink:href="#Arial-BoldMT-36" transform="translate(795.166016 0)"/>
    </g>
   </g>
   <g id="text_14">
    <!-- hsa_circ_0000253 -->
    <g style="fill: #262626" transform="translate(121.718034 88.80761) scale(0.095 -0.095)">
     <use xlink:href="#Arial-BoldMT-68"/>
     <use xlink:href="#Arial-BoldMT-73" transform="translate(61.083984 0)"/>
     <use xlink:href="#Arial-BoldMT-61" transform="translate(116.699219 0)"/>
     <use xlink:href="#Arial-BoldMT-5f" transform="translate(172.314453 0)"/>
     <use xlink:href="#Arial-BoldMT-63" transform="translate(227.929688 0)"/>
     <use xlink:href="#Arial-BoldMT-69" transform="translate(283.544922 0)"/>
     <use xlink:href="#Arial-BoldMT-72" transform="translate(311.328125 0)"/>
     <use xlink:href="#Arial-BoldMT-63" transform="translate(350.244141 0)"/>
     <use xlink:href="#Arial-BoldMT-5f" transform="translate(405.859375 0)"/>
     <use xlink:href="#Arial-BoldMT-30" transform="translate(461.474609 0)"/>
     <use xlink:href="#Arial-BoldMT-30" transform="translate(517.089844 0)"/>
     <use xlink:href="#Arial-BoldMT-30" transform="translate(572.705078 0)"/>
     <use xlink:href="#Arial-BoldMT-30" transform="translate(628.320312 0)"/>
     <use xlink:href="#Arial-BoldMT-32" transform="translate(683.935547 0)"/>
     <use xlink:href="#Arial-BoldMT-35" transform="translate(739.550781 0)"/>
     <use xlink:href="#Arial-BoldMT-33" transform="translate(795.166016 0)"/>
    </g>
   </g>
   <g id="text_15">
    <!-- hsa_circ_0000036 -->
    <g style="fill: #262626" transform="translate(69.657373 73.452454) scale(0.095 -0.095)">
     <use xlink:href="#Arial-BoldMT-68"/>
     <use xlink:href="#Arial-BoldMT-73" transform="translate(61.083984 0)"/>
     <use xlink:href="#Arial-BoldMT-61" transform="translate(116.699219 0)"/>
     <use xlink:href="#Arial-BoldMT-5f" transform="translate(172.314453 0)"/>
     <use xlink:href="#Arial-BoldMT-63" transform="translate(227.929688 0)"/>
     <use xlink:href="#Arial-BoldMT-69" transform="translate(283.544922 0)"/>
     <use xlink:href="#Arial-BoldMT-72" transform="translate(311.328125 0)"/>
     <use xlink:href="#Arial-BoldMT-63" transform="translate(350.244141 0)"/>
     <use xlink:href="#Arial-BoldMT-5f" transform="translate(405.859375 0)"/>
     <use xlink:href="#Arial-BoldMT-30" transform="translate(461.474609 0)"/>
     <use xlink:href="#Arial-BoldMT-30" transform="translate(517.089844 0)"/>
     <use xlink:href="#Arial-BoldMT-30" transform="translate(572.705078 0)"/>
     <use xlink:href="#Arial-BoldMT-30" transform="translate(628.320312 0)"/>
     <use xlink:href="#Arial-BoldMT-30" transform="translate(683.935547 0)"/>
     <use xlink:href="#Arial-BoldMT-33" transform="translate(739.550781 0)"/>
     <use xlink:href="#Arial-BoldMT-36" transform="translate(795.166016 0)"/>
    </g>
   </g>
   <g id="text_16">
    <!-- hsa_circ_0000658 -->
    <g style="fill: #262626" transform="translate(140.953757 109.305726) scale(0.095 -0.095)">
     <use xlink:href="#Arial-BoldMT-68"/>
     <use xlink:href="#Arial-BoldMT-73" transform="translate(61.083984 0)"/>
     <use xlink:href="#Arial-BoldMT-61" transform="translate(116.699219 0)"/>
     <use xlink:href="#Arial-BoldMT-5f" transform="translate(172.314453 0)"/>
     <use xlink:href="#Arial-BoldMT-63" transform="translate(227.929688 0)"/>
     <use xlink:href="#Arial-BoldMT-69" transform="translate(283.544922 0)"/>
     <use xlink:href="#Arial-BoldMT-72" transform="translate(311.328125 0)"/>
     <use xlink:href="#Arial-BoldMT-63" transform="translate(350.244141 0)"/>
     <use xlink:href="#Arial-BoldMT-5f" transform="translate(405.859375 0)"/>
     <use xlink:href="#Arial-BoldMT-30" transform="translate(461.474609 0)"/>
     <use xlink:href="#Arial-BoldMT-30" transform="translate(517.089844 0)"/>
     <use xlink:href="#Arial-BoldMT-30" transform="translate(572.705078 0)"/>
     <use xlink:href="#Arial-BoldMT-30" transform="translate(628.320312 0)"/>
     <use xlink:href="#Arial-BoldMT-36" transform="translate(683.935547 0)"/>
     <use xlink:href="#Arial-BoldMT-35" transform="translate(739.550781 0)"/>
     <use xlink:href="#Arial-BoldMT-38" transform="translate(795.166016 0)"/>
    </g>
   </g>
   <g id="PathCollection_3">
    <defs>
     <path id="m1a168b002b" d="M 0 3.937004 
C 1.044106 3.937004 2.045588 3.522176 2.783882 2.783882 
C 3.522176 2.045588 3.937004 1.044106 3.937004 0 
C 3.937004 -1.044106 3.522176 -2.045588 2.783882 -2.783882 
C 2.045588 -3.522176 1.044106 -3.937004 0 -3.937004 
C -1.044106 -3.937004 -2.045588 -3.522176 -2.783882 -2.783882 
C -3.522176 -2.045588 -3.937004 -1.044106 -3.937004 0 
C -3.937004 1.044106 -3.522176 2.045588 -2.783882 2.783882 
C -2.045588 3.522176 -1.044106 3.937004 0 3.937004 
z
" style="stroke: #000000; stroke-opacity: 0.95; stroke-width: 0.55"/>
    </defs>
    <g clip-path="url(#p898a8323bf)">
     <use xlink:href="#m1a168b002b" x="312.458474" y="239.264516" style="fill: #bd6f45; fill-opacity: 0.95; stroke: #000000; stroke-opacity: 0.95; stroke-width: 0.55"/>
    </g>
   </g>
   <g id="text_17">
    <!-- hsa_circ_0004623 -->
    <g style="fill: #262626" transform="translate(317.353109 231.368704) scale(0.095 -0.095)">
     <use xlink:href="#Arial-BoldMT-68"/>
     <use xlink:href="#Arial-BoldMT-73" transform="translate(61.083984 0)"/>
     <use xlink:href="#Arial-BoldMT-61" transform="translate(116.699219 0)"/>
     <use xlink:href="#Arial-BoldMT-5f" transform="translate(172.314453 0)"/>
     <use xlink:href="#Arial-BoldMT-63" transform="translate(227.929688 0)"/>
     <use xlink:href="#Arial-BoldMT-69" transform="translate(283.544922 0)"/>
     <use xlink:href="#Arial-BoldMT-72" transform="translate(311.328125 0)"/>
     <use xlink:href="#Arial-BoldMT-63" transform="translate(350.244141 0)"/>
     <use xlink:href="#Arial-BoldMT-5f" transform="translate(405.859375 0)"/>
     <use xlink:href="#Arial-BoldMT-30" transform="translate(461.474609 0)"/>
     <use xlink:href="#Arial-BoldMT-30" transform="translate(517.089844 0)"/>
     <use xlink:href="#Arial-BoldMT-30" transform="translate(572.705078 0)"/>
     <use xlink:href="#Arial-BoldMT-34" transform="translate(628.320312 0)"/>
     <use xlink:href="#Arial-BoldMT-36" transform="translate(683.935547 0)"/>
     <use xlink:href="#Arial-BoldMT-32" transform="translate(739.550781 0)"/>
     <use xlink:href="#Arial-BoldMT-33" transform="translate(795.166016 0)"/>
    </g>
   </g>
   <g id="PathCollection_4">
    <g clip-path="url(#p898a8323bf)">
     <use xlink:href="#m1a168b002b" x="174.948941" y="238.968653" style="fill: #bd6f45; fill-opacity: 0.95; stroke: #000000; stroke-opacity: 0.95; stroke-width: 0.55"/>
    </g>
   </g>
   <g id="text_18">
    <!-- hsa_circ_0035654 -->
    <g style="fill: #262626" transform="translate(179.843576 229.318216) scale(0.095 -0.095)">
     <use xlink:href="#Arial-BoldMT-68"/>
     <use xlink:href="#Arial-BoldMT-73" transform="translate(61.083984 0)"/>
     <use xlink:href="#Arial-BoldMT-61" transform="translate(116.699219 0)"/>
     <use xlink:href="#Arial-BoldMT-5f" transform="translate(172.314453 0)"/>
     <use xlink:href="#Arial-BoldMT-63" transform="translate(227.929688 0)"/>
     <use xlink:href="#Arial-BoldMT-69" transform="translate(283.544922 0)"/>
     <use xlink:href="#Arial-BoldMT-72" transform="translate(311.328125 0)"/>
     <use xlink:href="#Arial-BoldMT-63" transform="translate(350.244141 0)"/>
     <use xlink:href="#Arial-BoldMT-5f" transform="translate(405.859375 0)"/>
     <use xlink:href="#Arial-BoldMT-30" transform="translate(461.474609 0)"/>
     <use xlink:href="#Arial-BoldMT-30" transform="translate(517.089844 0)"/>
     <use xlink:href="#Arial-BoldMT-33" transform="translate(572.705078 0)"/>
     <use xlink:href="#Arial-BoldMT-35" transform="translate(628.320312 0)"/>
     <use xlink:href="#Arial-BoldMT-36" transform="translate(683.935547 0)"/>
     <use xlink:href="#Arial-BoldMT-35" transform="translate(739.550781 0)"/>
     <use xlink:href="#Arial-BoldMT-34" transform="translate(795.166016 0)"/>
    </g>
   </g>
   <g id="PathCollection_5">
    <g clip-path="url(#p898a8323bf)">
     <use xlink:href="#m1a168b002b" x="212.833418" y="184.709553" style="fill: #bd6f45; fill-opacity: 0.95; stroke: #000000; stroke-opacity: 0.95; stroke-width: 0.55"/>
    </g>
   </g>
   <g id="text_19">
    <!-- hsa_circ_0001776 -->
    <g style="fill: #262626" transform="translate(217.728053 212.783553) scale(0.095 -0.095)">
     <use xlink:href="#Arial-BoldMT-68"/>
     <use xlink:href="#Arial-BoldMT-73" transform="translate(61.083984 0)"/>
     <use xlink:href="#Arial-BoldMT-61" transform="translate(116.699219 0)"/>
     <use xlink:href="#Arial-BoldMT-5f" transform="translate(172.314453 0)"/>
     <use xlink:href="#Arial-BoldMT-63" transform="translate(227.929688 0)"/>
     <use xlink:href="#Arial-BoldMT-69" transform="translate(283.544922 0)"/>
     <use xlink:href="#Arial-BoldMT-72" transform="translate(311.328125 0)"/>
     <use xlink:href="#Arial-BoldMT-63" transform="translate(350.244141 0)"/>
     <use xlink:href="#Arial-BoldMT-5f" transform="translate(405.859375 0)"/>
     <use xlink:href="#Arial-BoldMT-30" transform="translate(461.474609 0)"/>
     <use xlink:href="#Arial-BoldMT-30" transform="translate(517.089844 0)"/>
     <use xlink:href="#Arial-BoldMT-30" transform="translate(572.705078 0)"/>
     <use xlink:href="#Arial-BoldMT-31" transform="translate(628.320312 0)"/>
     <use xlink:href="#Arial-BoldMT-37" transform="translate(683.935547 0)"/>
     <use xlink:href="#Arial-BoldMT-37" transform="translate(739.550781 0)"/>
     <use xlink:href="#Arial-BoldMT-36" transform="translate(795.166016 0)"/>
    </g>
   </g>
   <g id="text_20">
    <!-- hsa_circ_0001222 -->
    <g style="fill: #262626" transform="translate(159.06313 122.999427) scale(0.095 -0.095)">
     <use xlink:href="#Arial-BoldMT-68"/>
     <use xlink:href="#Arial-BoldMT-73" transform="translate(61.083984 0)"/>
     <use xlink:href="#Arial-BoldMT-61" transform="translate(116.699219 0)"/>
     <use xlink:href="#Arial-BoldMT-5f" transform="translate(172.314453 0)"/>
     <use xlink:href="#Arial-BoldMT-63" transform="translate(227.929688 0)"/>
     <use xlink:href="#Arial-BoldMT-69" transform="translate(283.544922 0)"/>
     <use xlink:href="#Arial-BoldMT-72" transform="translate(311.328125 0)"/>
     <use xlink:href="#Arial-BoldMT-63" transform="translate(350.244141 0)"/>
     <use xlink:href="#Arial-BoldMT-5f" transform="translate(405.859375 0)"/>
     <use xlink:href="#Arial-BoldMT-30" transform="translate(461.474609 0)"/>
     <use xlink:href="#Arial-BoldMT-30" transform="translate(517.089844 0)"/>
     <use xlink:href="#Arial-BoldMT-30" transform="translate(572.705078 0)"/>
     <use xlink:href="#Arial-BoldMT-31" transform="translate(628.320312 0)"/>
     <use xlink:href="#Arial-BoldMT-32" transform="translate(683.935547 0)"/>
     <use xlink:href="#Arial-BoldMT-32" transform="translate(739.550781 0)"/>
     <use xlink:href="#Arial-BoldMT-32" transform="translate(795.166016 0)"/>
    </g>
   </g>
   <g id="PathCollection_6">
    <g clip-path="url(#p898a8323bf)">
     <use xlink:href="#m1a168b002b" x="251.428102" y="209.988907" style="fill: #bd6f45; fill-opacity: 0.95; stroke: #000000; stroke-opacity: 0.95; stroke-width: 0.55"/>
    </g>
   </g>
   <g id="text_21">
    <!-- hsa_circ_0005224 -->
    <g style="fill: #262626" transform="translate(253.525803 203.84772) scale(0.095 -0.095)">
     <use xlink:href="#Arial-BoldMT-68"/>
     <use xlink:href="#Arial-BoldMT-73" transform="translate(61.083984 0)"/>
     <use xlink:href="#Arial-BoldMT-61" transform="translate(116.699219 0)"/>
     <use xlink:href="#Arial-BoldMT-5f" transform="translate(172.314453 0)"/>
     <use xlink:href="#Arial-BoldMT-63" transform="translate(227.929688 0)"/>
     <use xlink:href="#Arial-BoldMT-69" transform="translate(283.544922 0)"/>
     <use xlink:href="#Arial-BoldMT-72" transform="translate(311.328125 0)"/>
     <use xlink:href="#Arial-BoldMT-63" transform="translate(350.244141 0)"/>
     <use xlink:href="#Arial-BoldMT-5f" transform="translate(405.859375 0)"/>
     <use xlink:href="#Arial-BoldMT-30" transform="translate(461.474609 0)"/>
     <use xlink:href="#Arial-BoldMT-30" transform="translate(517.089844 0)"/>
     <use xlink:href="#Arial-BoldMT-30" transform="translate(572.705078 0)"/>
     <use xlink:href="#Arial-BoldMT-35" transform="translate(628.320312 0)"/>
     <use xlink:href="#Arial-BoldMT-32" transform="translate(683.935547 0)"/>
     <use xlink:href="#Arial-BoldMT-32" transform="translate(739.550781 0)"/>
     <use xlink:href="#Arial-BoldMT-34" transform="translate(795.166016 0)"/>
    </g>
   </g>
   <g id="text_22">
    <g id="patch_5">
     <path d="M 193.213908 85.312168 
L 322.980783 85.312168 
L 322.980783 60.613871 
L 193.213908 60.613871 
z
" style="fill: #ffffff; opacity: 0.85"/>
    </g>
    <!-- Ct threshold=27.31 -->
    <g style="fill: #262626" transform="translate(231.972033 70.124574) scale(0.105 -0.105)">
     <defs>
      <path id="ArialMT-43" d="M 3763 1606 
L 4369 1453 
Q 4178 706 3683 314 
Q 3188 -78 2472 -78 
Q 1731 -78 1267 223 
Q 803 525 561 1097 
Q 319 1669 319 2325 
Q 319 3041 592 3573 
Q 866 4106 1370 4382 
Q 1875 4659 2481 4659 
Q 3169 4659 3637 4309 
Q 4106 3959 4291 3325 
L 3694 3184 
Q 3534 3684 3231 3912 
Q 2928 4141 2469 4141 
Q 1941 4141 1586 3887 
Q 1231 3634 1087 3207 
Q 944 2781 944 2328 
Q 944 1744 1114 1308 
Q 1284 872 1643 656 
Q 2003 441 2422 441 
Q 2931 441 3284 734 
Q 3638 1028 3763 1606 
z
" transform="scale(0.015625)"/>
      <path id="ArialMT-74" d="M 1650 503 
L 1731 6 
Q 1494 -44 1306 -44 
Q 1000 -44 831 53 
Q 663 150 594 308 
Q 525 466 525 972 
L 525 2881 
L 113 2881 
L 113 3319 
L 525 3319 
L 525 4141 
L 1084 4478 
L 1084 3319 
L 1650 3319 
L 1650 2881 
L 1084 2881 
L 1084 941 
Q 1084 700 1114 631 
Q 1144 563 1211 522 
Q 1278 481 1403 481 
Q 1497 481 1650 503 
z
" transform="scale(0.015625)"/>
      <path id="ArialMT-20" transform="scale(0.015625)"/>
      <path id="ArialMT-68" d="M 422 0 
L 422 4581 
L 984 4581 
L 984 2938 
Q 1378 3394 1978 3394 
Q 2347 3394 2619 3248 
Q 2891 3103 3008 2847 
Q 3125 2591 3125 2103 
L 3125 0 
L 2563 0 
L 2563 2103 
Q 2563 2525 2380 2717 
Q 2197 2909 1863 2909 
Q 1613 2909 1392 2779 
Q 1172 2650 1078 2428 
Q 984 2206 984 1816 
L 984 0 
L 422 0 
z
" transform="scale(0.015625)"/>
      <path id="ArialMT-72" d="M 416 0 
L 416 3319 
L 922 3319 
L 922 2816 
Q 1116 3169 1280 3281 
Q 1444 3394 1641 3394 
Q 1925 3394 2219 3213 
L 2025 2691 
Q 1819 2813 1613 2813 
Q 1428 2813 1281 2702 
Q 1134 2591 1072 2394 
Q 978 2094 978 1738 
L 978 0 
L 416 0 
z
" transform="scale(0.015625)"/>
      <path id="ArialMT-65" d="M 2694 1069 
L 3275 997 
Q 3138 488 2766 206 
Q 2394 -75 1816 -75 
Q 1088 -75 661 373 
Q 234 822 234 1631 
Q 234 2469 665 2931 
Q 1097 3394 1784 3394 
Q 2450 3394 2872 2941 
Q 3294 2488 3294 1666 
Q 3294 1616 3291 1516 
L 816 1516 
Q 847 969 1125 678 
Q 1403 388 1819 388 
Q 2128 388 2347 550 
Q 2566 713 2694 1069 
z
M 847 1978 
L 2700 1978 
Q 2663 2397 2488 2606 
Q 2219 2931 1791 2931 
Q 1403 2931 1139 2672 
Q 875 2413 847 1978 
z
" transform="scale(0.015625)"/>
      <path id="ArialMT-73" d="M 197 991 
L 753 1078 
Q 800 744 1014 566 
Q 1228 388 1613 388 
Q 2000 388 2187 545 
Q 2375 703 2375 916 
Q 2375 1106 2209 1216 
Q 2094 1291 1634 1406 
Q 1016 1563 777 1677 
Q 538 1791 414 1992 
Q 291 2194 291 2438 
Q 291 2659 392 2848 
Q 494 3038 669 3163 
Q 800 3259 1026 3326 
Q 1253 3394 1513 3394 
Q 1903 3394 2198 3281 
Q 2494 3169 2634 2976 
Q 2775 2784 2828 2463 
L 2278 2388 
Q 2241 2644 2061 2787 
Q 1881 2931 1553 2931 
Q 1166 2931 1000 2803 
Q 834 2675 834 2503 
Q 834 2394 903 2306 
Q 972 2216 1119 2156 
Q 1203 2125 1616 2013 
Q 2213 1853 2448 1751 
Q 2684 1650 2818 1456 
Q 2953 1263 2953 975 
Q 2953 694 2789 445 
Q 2625 197 2315 61 
Q 2006 -75 1616 -75 
Q 969 -75 630 194 
Q 291 463 197 991 
z
" transform="scale(0.015625)"/>
      <path id="ArialMT-6f" d="M 213 1659 
Q 213 2581 725 3025 
Q 1153 3394 1769 3394 
Q 2453 3394 2887 2945 
Q 3322 2497 3322 1706 
Q 3322 1066 3130 698 
Q 2938 331 2570 128 
Q 2203 -75 1769 -75 
Q 1072 -75 642 372 
Q 213 819 213 1659 
z
M 791 1659 
Q 791 1022 1069 705 
Q 1347 388 1769 388 
Q 2188 388 2466 706 
Q 2744 1025 2744 1678 
Q 2744 2294 2464 2611 
Q 2184 2928 1769 2928 
Q 1347 2928 1069 2612 
Q 791 2297 791 1659 
z
" transform="scale(0.015625)"/>
      <path id="ArialMT-6c" d="M 409 0 
L 409 4581 
L 972 4581 
L 972 0 
L 409 0 
z
" transform="scale(0.015625)"/>
      <path id="ArialMT-64" d="M 2575 0 
L 2575 419 
Q 2259 -75 1647 -75 
Q 1250 -75 917 144 
Q 584 363 401 755 
Q 219 1147 219 1656 
Q 219 2153 384 2558 
Q 550 2963 881 3178 
Q 1213 3394 1622 3394 
Q 1922 3394 2156 3267 
Q 2391 3141 2538 2938 
L 2538 4581 
L 3097 4581 
L 3097 0 
L 2575 0 
z
M 797 1656 
Q 797 1019 1065 703 
Q 1334 388 1700 388 
Q 2069 388 2326 689 
Q 2584 991 2584 1609 
Q 2584 2291 2321 2609 
Q 2059 2928 1675 2928 
Q 1300 2928 1048 2622 
Q 797 2316 797 1656 
z
" transform="scale(0.015625)"/>
      <path id="ArialMT-3d" d="M 3381 2694 
L 356 2694 
L 356 3219 
L 3381 3219 
L 3381 2694 
z
M 3381 1303 
L 356 1303 
L 356 1828 
L 3381 1828 
L 3381 1303 
z
" transform="scale(0.015625)"/>
      <path id="ArialMT-32" d="M 3222 541 
L 3222 0 
L 194 0 
Q 188 203 259 391 
Q 375 700 629 1000 
Q 884 1300 1366 1694 
Q 2113 2306 2375 2664 
Q 2638 3022 2638 3341 
Q 2638 3675 2398 3904 
Q 2159 4134 1775 4134 
Q 1369 4134 1125 3890 
Q 881 3647 878 3216 
L 300 3275 
Q 359 3922 746 4261 
Q 1134 4600 1788 4600 
Q 2447 4600 2831 4234 
Q 3216 3869 3216 3328 
Q 3216 3053 3103 2787 
Q 2991 2522 2730 2228 
Q 2469 1934 1863 1422 
Q 1356 997 1212 845 
Q 1069 694 975 541 
L 3222 541 
z
" transform="scale(0.015625)"/>
      <path id="ArialMT-37" d="M 303 3981 
L 303 4522 
L 3269 4522 
L 3269 4084 
Q 2831 3619 2401 2847 
Q 1972 2075 1738 1259 
Q 1569 684 1522 0 
L 944 0 
Q 953 541 1156 1306 
Q 1359 2072 1739 2783 
Q 2119 3494 2547 3981 
L 303 3981 
z
" transform="scale(0.015625)"/>
      <path id="ArialMT-2e" d="M 581 0 
L 581 641 
L 1222 641 
L 1222 0 
L 581 0 
z
" transform="scale(0.015625)"/>
      <path id="ArialMT-33" d="M 269 1209 
L 831 1284 
Q 928 806 1161 595 
Q 1394 384 1728 384 
Q 2125 384 2398 659 
Q 2672 934 2672 1341 
Q 2672 1728 2419 1979 
Q 2166 2231 1775 2231 
Q 1616 2231 1378 2169 
L 1441 2663 
Q 1497 2656 1531 2656 
Q 1891 2656 2178 2843 
Q 2466 3031 2466 3422 
Q 2466 3731 2256 3934 
Q 2047 4138 1716 4138 
Q 1388 4138 1169 3931 
Q 950 3725 888 3313 
L 325 3413 
Q 428 3978 793 4289 
Q 1159 4600 1703 4600 
Q 2078 4600 2393 4439 
Q 2709 4278 2876 4000 
Q 3044 3722 3044 3409 
Q 3044 3113 2884 2869 
Q 2725 2625 2413 2481 
Q 2819 2388 3044 2092 
Q 3269 1797 3269 1353 
Q 3269 753 2831 336 
Q 2394 -81 1725 -81 
Q 1122 -81 723 278 
Q 325 638 269 1209 
z
" transform="scale(0.015625)"/>
      <path id="ArialMT-31" d="M 2384 0 
L 1822 0 
L 1822 3584 
Q 1619 3391 1289 3197 
Q 959 3003 697 2906 
L 697 3450 
Q 1169 3672 1522 3987 
Q 1875 4303 2022 4600 
L 2384 4600 
L 2384 0 
z
" transform="scale(0.015625)"/>
     </defs>
     <use xlink:href="#ArialMT-43"/>
     <use xlink:href="#ArialMT-74" transform="translate(72.216797 0)"/>
     <use xlink:href="#ArialMT-20" transform="translate(100 0)"/>
     <use xlink:href="#ArialMT-74" transform="translate(127.783203 0)"/>
     <use xlink:href="#ArialMT-68" transform="translate(155.566406 0)"/>
     <use xlink:href="#ArialMT-72" transform="translate(211.181641 0)"/>
     <use xlink:href="#ArialMT-65" transform="translate(244.482422 0)"/>
     <use xlink:href="#ArialMT-73" transform="translate(300.097656 0)"/>
     <use xlink:href="#ArialMT-68" transform="translate(350.097656 0)"/>
     <use xlink:href="#ArialMT-6f" transform="translate(405.712891 0)"/>
     <use xlink:href="#ArialMT-6c" transform="translate(461.328125 0)"/>
     <use xlink:href="#ArialMT-64" transform="translate(483.544922 0)"/>
     <use xlink:href="#ArialMT-3d" transform="translate(539.160156 0)"/>
     <use xlink:href="#ArialMT-32" transform="translate(597.558594 0)"/>
     <use xlink:href="#ArialMT-37" transform="translate(653.173828 0)"/>
     <use xlink:href="#ArialMT-2e" transform="translate(708.789062 0)"/>
     <use xlink:href="#ArialMT-33" transform="translate(736.572266 0)"/>
     <use xlink:href="#ArialMT-31" transform="translate(792.1875 0)"/>
    </g>
    <!-- Enrichment threshold=0.48 -->
    <g style="fill: #262626" transform="translate(195.208908 81.230293) scale(0.105 -0.105)">
     <defs>
      <path id="ArialMT-45" d="M 506 0 
L 506 4581 
L 3819 4581 
L 3819 4041 
L 1113 4041 
L 1113 2638 
L 3647 2638 
L 3647 2100 
L 1113 2100 
L 1113 541 
L 3925 541 
L 3925 0 
L 506 0 
z
" transform="scale(0.015625)"/>
      <path id="ArialMT-6e" d="M 422 0 
L 422 3319 
L 928 3319 
L 928 2847 
Q 1294 3394 1984 3394 
Q 2284 3394 2536 3286 
Q 2788 3178 2913 3003 
Q 3038 2828 3088 2588 
Q 3119 2431 3119 2041 
L 3119 0 
L 2556 0 
L 2556 2019 
Q 2556 2363 2490 2533 
Q 2425 2703 2258 2804 
Q 2091 2906 1866 2906 
Q 1506 2906 1245 2678 
Q 984 2450 984 1813 
L 984 0 
L 422 0 
z
" transform="scale(0.015625)"/>
      <path id="ArialMT-69" d="M 425 3934 
L 425 4581 
L 988 4581 
L 988 3934 
L 425 3934 
z
M 425 0 
L 425 3319 
L 988 3319 
L 988 0 
L 425 0 
z
" transform="scale(0.015625)"/>
      <path id="ArialMT-63" d="M 2588 1216 
L 3141 1144 
Q 3050 572 2676 248 
Q 2303 -75 1759 -75 
Q 1078 -75 664 370 
Q 250 816 250 1647 
Q 250 2184 428 2587 
Q 606 2991 970 3192 
Q 1334 3394 1763 3394 
Q 2303 3394 2647 3120 
Q 2991 2847 3088 2344 
L 2541 2259 
Q 2463 2594 2264 2762 
Q 2066 2931 1784 2931 
Q 1359 2931 1093 2626 
Q 828 2322 828 1663 
Q 828 994 1084 691 
Q 1341 388 1753 388 
Q 2084 388 2306 591 
Q 2528 794 2588 1216 
z
" transform="scale(0.015625)"/>
      <path id="ArialMT-6d" d="M 422 0 
L 422 3319 
L 925 3319 
L 925 2853 
Q 1081 3097 1340 3245 
Q 1600 3394 1931 3394 
Q 2300 3394 2536 3241 
Q 2772 3088 2869 2813 
Q 3263 3394 3894 3394 
Q 4388 3394 4653 3120 
Q 4919 2847 4919 2278 
L 4919 0 
L 4359 0 
L 4359 2091 
Q 4359 2428 4304 2576 
Q 4250 2725 4106 2815 
Q 3963 2906 3769 2906 
Q 3419 2906 3187 2673 
Q 2956 2441 2956 1928 
L 2956 0 
L 2394 0 
L 2394 2156 
Q 2394 2531 2256 2718 
Q 2119 2906 1806 2906 
Q 1569 2906 1367 2781 
Q 1166 2656 1075 2415 
Q 984 2175 984 1722 
L 984 0 
L 422 0 
z
" transform="scale(0.015625)"/>
      <path id="ArialMT-30" d="M 266 2259 
Q 266 3072 433 3567 
Q 600 4063 929 4331 
Q 1259 4600 1759 4600 
Q 2128 4600 2406 4451 
Q 2684 4303 2865 4023 
Q 3047 3744 3150 3342 
Q 3253 2941 3253 2259 
Q 3253 1453 3087 958 
Q 2922 463 2592 192 
Q 2263 -78 1759 -78 
Q 1097 -78 719 397 
Q 266 969 266 2259 
z
M 844 2259 
Q 844 1131 1108 757 
Q 1372 384 1759 384 
Q 2147 384 2411 759 
Q 2675 1134 2675 2259 
Q 2675 3391 2411 3762 
Q 2147 4134 1753 4134 
Q 1366 4134 1134 3806 
Q 844 3388 844 2259 
z
" transform="scale(0.015625)"/>
      <path id="ArialMT-34" d="M 2069 0 
L 2069 1097 
L 81 1097 
L 81 1613 
L 2172 4581 
L 2631 4581 
L 2631 1613 
L 3250 1613 
L 3250 1097 
L 2631 1097 
L 2631 0 
L 2069 0 
z
M 2069 1613 
L 2069 3678 
L 634 1613 
L 2069 1613 
z
" transform="scale(0.015625)"/>
      <path id="ArialMT-38" d="M 1131 2484 
Q 781 2613 612 2850 
Q 444 3088 444 3419 
Q 444 3919 803 4259 
Q 1163 4600 1759 4600 
Q 2359 4600 2725 4251 
Q 3091 3903 3091 3403 
Q 3091 3084 2923 2848 
Q 2756 2613 2416 2484 
Q 2838 2347 3058 2040 
Q 3278 1734 3278 1309 
Q 3278 722 2862 322 
Q 2447 -78 1769 -78 
Q 1091 -78 675 323 
Q 259 725 259 1325 
Q 259 1772 486 2073 
Q 713 2375 1131 2484 
z
M 1019 3438 
Q 1019 3113 1228 2906 
Q 1438 2700 1772 2700 
Q 2097 2700 2305 2904 
Q 2513 3109 2513 3406 
Q 2513 3716 2298 3927 
Q 2084 4138 1766 4138 
Q 1444 4138 1231 3931 
Q 1019 3725 1019 3438 
z
M 838 1322 
Q 838 1081 952 856 
Q 1066 631 1291 507 
Q 1516 384 1775 384 
Q 2178 384 2440 643 
Q 2703 903 2703 1303 
Q 2703 1709 2433 1975 
Q 2163 2241 1756 2241 
Q 1359 2241 1098 1978 
Q 838 1716 838 1322 
z
" transform="scale(0.015625)"/>
     </defs>
     <use xlink:href="#ArialMT-45"/>
     <use xlink:href="#ArialMT-6e" transform="translate(66.699219 0)"/>
     <use xlink:href="#ArialMT-72" transform="translate(122.314453 0)"/>
     <use xlink:href="#ArialMT-69" transform="translate(155.615234 0)"/>
     <use xlink:href="#ArialMT-63" transform="translate(177.832031 0)"/>
     <use xlink:href="#ArialMT-68" transform="translate(227.832031 0)"/>
     <use xlink:href="#ArialMT-6d" transform="translate(283.447266 0)"/>
     <use xlink:href="#ArialMT-65" transform="translate(366.748047 0)"/>
     <use xlink:href="#ArialMT-6e" transform="translate(422.363281 0)"/>
     <use xlink:href="#ArialMT-74" transform="translate(477.978516 0)"/>
     <use xlink:href="#ArialMT-20" transform="translate(505.761719 0)"/>
     <use xlink:href="#ArialMT-74" transform="translate(533.544922 0)"/>
     <use xlink:href="#ArialMT-68" transform="translate(561.328125 0)"/>
     <use xlink:href="#ArialMT-72" transform="translate(616.943359 0)"/>
     <use xlink:href="#ArialMT-65" transform="translate(650.244141 0)"/>
     <use xlink:href="#ArialMT-73" transform="translate(705.859375 0)"/>
     <use xlink:href="#ArialMT-68" transform="translate(755.859375 0)"/>
     <use xlink:href="#ArialMT-6f" transform="translate(811.474609 0)"/>
     <use xlink:href="#ArialMT-6c" transform="translate(867.089844 0)"/>
     <use xlink:href="#ArialMT-64" transform="translate(889.306641 0)"/>
     <use xlink:href="#ArialMT-3d" transform="translate(944.921875 0)"/>
     <use xlink:href="#ArialMT-30" transform="translate(1003.320312 0)"/>
     <use xlink:href="#ArialMT-2e" transform="translate(1058.935547 0)"/>
     <use xlink:href="#ArialMT-34" transform="translate(1086.71875 0)"/>
     <use xlink:href="#ArialMT-38" transform="translate(1142.333984 0)"/>
    </g>
   </g>
   <g id="PathCollection_7">
    <defs>
     <path id="m69717c9ea2" d="M 0 4.873397 
C 1.29244 4.873397 2.532119 4.359905 3.446012 3.446012 
C 4.359905 2.532119 4.873397 1.29244 4.873397 0 
C 4.873397 -1.29244 4.359905 -2.532119 3.446012 -3.446012 
C 2.532119 -4.359905 1.29244 -4.873397 0 -4.873397 
C -1.29244 -4.873397 -2.532119 -4.359905 -3.446012 -3.446012 
C -4.359905 -2.532119 -4.873397 -1.29244 -4.873397 0 
C -4.873397 1.29244 -4.359905 2.532119 -3.446012 3.446012 
C -2.532119 4.359905 -1.29244 4.873397 0 4.873397 
z
" style="stroke: #000000; stroke-opacity: 0.95; stroke-width: 1.2"/>
    </defs>
    <g clip-path="url(#p898a8323bf)">
     <use xlink:href="#m69717c9ea2" x="119.620333" y="94.948798" style="fill: #a7bfd6; fill-opacity: 0.95; stroke: #000000; stroke-opacity: 0.95; stroke-width: 1.2"/>
    </g>
   </g>
   <g id="PathCollection_8">
    <g clip-path="url(#p898a8323bf)">
     <use xlink:href="#m69717c9ea2" x="67.559672" y="63.802016" style="fill: #a7bfd6; fill-opacity: 0.95; stroke: #000000; stroke-opacity: 0.95; stroke-width: 1.2"/>
    </g>
   </g>
   <g id="PathCollection_9">
    <g clip-path="url(#p898a8323bf)">
     <use xlink:href="#m69717c9ea2" x="138.856056" y="115.446914" style="fill: #a7bfd6; fill-opacity: 0.95; stroke: #000000; stroke-opacity: 0.95; stroke-width: 1.2"/>
    </g>
   </g>
   <g id="PathCollection_10">
    <defs>
     <path id="ma8a64de5c6" d="M 0 4.873397 
C 1.29244 4.873397 2.532119 4.359905 3.446012 3.446012 
C 4.359905 2.532119 4.873397 1.29244 4.873397 0 
C 4.873397 -1.29244 4.359905 -2.532119 3.446012 -3.446012 
C 2.532119 -4.359905 1.29244 -4.873397 0 -4.873397 
C -1.29244 -4.873397 -2.532119 -4.359905 -3.446012 -3.446012 
C -4.359905 -2.532119 -4.873397 -1.29244 -4.873397 0 
C -4.873397 1.29244 -4.359905 2.532119 -3.446012 3.446012 
C -2.532119 4.359905 -1.29244 4.873397 0 4.873397 
z
" style="stroke: #000000; stroke-opacity: 0.95; stroke-width: 1.2"/>
    </defs>
    <g clip-path="url(#p898a8323bf)">
     <use xlink:href="#ma8a64de5c6" x="156.965429" y="129.140614" style="fill: #bd6f45; fill-opacity: 0.95; stroke: #000000; stroke-opacity: 0.95; stroke-width: 1.2"/>
    </g>
   </g>
   <g id="legend_1">
    <g id="patch_6">
     <path d="M 125.297949 20.031484 
L 143.697949 20.031484 
L 143.697949 11.981484 
L 125.297949 11.981484 
z
" style="fill: #a7bfd6; stroke: #000000; stroke-linejoin: miter"/>
    </g>
    <g id="text_23">
     <!-- Predicted EV targets -->
     <g style="fill: #262626" transform="translate(152.897949 20.031484) scale(0.115 -0.115)">
      <defs>
       <path id="ArialMT-50" d="M 494 0 
L 494 4581 
L 2222 4581 
Q 2678 4581 2919 4538 
Q 3256 4481 3484 4323 
Q 3713 4166 3852 3881 
Q 3991 3597 3991 3256 
Q 3991 2672 3619 2267 
Q 3247 1863 2275 1863 
L 1100 1863 
L 1100 0 
L 494 0 
z
M 1100 2403 
L 2284 2403 
Q 2872 2403 3119 2622 
Q 3366 2841 3366 3238 
Q 3366 3525 3220 3729 
Q 3075 3934 2838 4000 
Q 2684 4041 2272 4041 
L 1100 4041 
L 1100 2403 
z
" transform="scale(0.015625)"/>
       <path id="ArialMT-56" d="M 1803 0 
L 28 4581 
L 684 4581 
L 1875 1253 
Q 2019 853 2116 503 
Q 2222 878 2363 1253 
L 3600 4581 
L 4219 4581 
L 2425 0 
L 1803 0 
z
" transform="scale(0.015625)"/>
       <path id="ArialMT-61" d="M 2588 409 
Q 2275 144 1986 34 
Q 1697 -75 1366 -75 
Q 819 -75 525 192 
Q 231 459 231 875 
Q 231 1119 342 1320 
Q 453 1522 633 1644 
Q 813 1766 1038 1828 
Q 1203 1872 1538 1913 
Q 2219 1994 2541 2106 
Q 2544 2222 2544 2253 
Q 2544 2597 2384 2738 
Q 2169 2928 1744 2928 
Q 1347 2928 1158 2789 
Q 969 2650 878 2297 
L 328 2372 
Q 403 2725 575 2942 
Q 747 3159 1072 3276 
Q 1397 3394 1825 3394 
Q 2250 3394 2515 3294 
Q 2781 3194 2906 3042 
Q 3031 2891 3081 2659 
Q 3109 2516 3109 2141 
L 3109 1391 
Q 3109 606 3145 398 
Q 3181 191 3288 0 
L 2700 0 
Q 2613 175 2588 409 
z
M 2541 1666 
Q 2234 1541 1622 1453 
Q 1275 1403 1131 1340 
Q 988 1278 909 1158 
Q 831 1038 831 891 
Q 831 666 1001 516 
Q 1172 366 1500 366 
Q 1825 366 2078 508 
Q 2331 650 2450 897 
Q 2541 1088 2541 1459 
L 2541 1666 
z
" transform="scale(0.015625)"/>
       <path id="ArialMT-67" d="M 319 -275 
L 866 -356 
Q 900 -609 1056 -725 
Q 1266 -881 1628 -881 
Q 2019 -881 2231 -725 
Q 2444 -569 2519 -288 
Q 2563 -116 2559 434 
Q 2191 0 1641 0 
Q 956 0 581 494 
Q 206 988 206 1678 
Q 206 2153 378 2554 
Q 550 2956 876 3175 
Q 1203 3394 1644 3394 
Q 2231 3394 2613 2919 
L 2613 3319 
L 3131 3319 
L 3131 450 
Q 3131 -325 2973 -648 
Q 2816 -972 2473 -1159 
Q 2131 -1347 1631 -1347 
Q 1038 -1347 672 -1080 
Q 306 -813 319 -275 
z
M 784 1719 
Q 784 1066 1043 766 
Q 1303 466 1694 466 
Q 2081 466 2343 764 
Q 2606 1063 2606 1700 
Q 2606 2309 2336 2618 
Q 2066 2928 1684 2928 
Q 1309 2928 1046 2623 
Q 784 2319 784 1719 
z
" transform="scale(0.015625)"/>
      </defs>
      <use xlink:href="#ArialMT-50"/>
      <use xlink:href="#ArialMT-72" transform="translate(66.699219 0)"/>
      <use xlink:href="#ArialMT-65" transform="translate(100 0)"/>
      <use xlink:href="#ArialMT-64" transform="translate(155.615234 0)"/>
      <use xlink:href="#ArialMT-69" transform="translate(211.230469 0)"/>
      <use xlink:href="#ArialMT-63" transform="translate(233.447266 0)"/>
      <use xlink:href="#ArialMT-74" transform="translate(283.447266 0)"/>
      <use xlink:href="#ArialMT-65" transform="translate(311.230469 0)"/>
      <use xlink:href="#ArialMT-64" transform="translate(366.845703 0)"/>
      <use xlink:href="#ArialMT-20" transform="translate(422.460938 0)"/>
      <use xlink:href="#ArialMT-45" transform="translate(450.244141 0)"/>
      <use xlink:href="#ArialMT-56" transform="translate(516.943359 0)"/>
      <use xlink:href="#ArialMT-20" transform="translate(583.642578 0)"/>
      <use xlink:href="#ArialMT-74" transform="translate(611.425781 0)"/>
      <use xlink:href="#ArialMT-61" transform="translate(639.208984 0)"/>
      <use xlink:href="#ArialMT-72" transform="translate(694.824219 0)"/>
      <use xlink:href="#ArialMT-67" transform="translate(728.125 0)"/>
      <use xlink:href="#ArialMT-65" transform="translate(783.740234 0)"/>
      <use xlink:href="#ArialMT-74" transform="translate(839.355469 0)"/>
      <use xlink:href="#ArialMT-73" transform="translate(867.138672 0)"/>
     </g>
    </g>
    <g id="patch_7">
     <path d="M 125.297949 36.573516 
L 143.697949 36.573516 
L 143.697949 28.523516 
L 125.297949 28.523516 
z
" style="fill: #bd6f45; stroke: #000000; stroke-linejoin: miter"/>
    </g>
    <g id="text_24">
     <!-- Predicted Cellular targets -->
     <g style="fill: #262626" transform="translate(152.897949 36.573516) scale(0.115 -0.115)">
      <defs>
       <path id="ArialMT-75" d="M 2597 0 
L 2597 488 
Q 2209 -75 1544 -75 
Q 1250 -75 995 37 
Q 741 150 617 320 
Q 494 491 444 738 
Q 409 903 409 1263 
L 409 3319 
L 972 3319 
L 972 1478 
Q 972 1038 1006 884 
Q 1059 663 1231 536 
Q 1403 409 1656 409 
Q 1909 409 2131 539 
Q 2353 669 2445 892 
Q 2538 1116 2538 1541 
L 2538 3319 
L 3100 3319 
L 3100 0 
L 2597 0 
z
" transform="scale(0.015625)"/>
      </defs>
      <use xlink:href="#ArialMT-50"/>
      <use xlink:href="#ArialMT-72" transform="translate(66.699219 0)"/>
      <use xlink:href="#ArialMT-65" transform="translate(100 0)"/>
      <use xlink:href="#ArialMT-64" transform="translate(155.615234 0)"/>
      <use xlink:href="#ArialMT-69" transform="translate(211.230469 0)"/>
      <use xlink:href="#ArialMT-63" transform="translate(233.447266 0)"/>
      <use xlink:href="#ArialMT-74" transform="translate(283.447266 0)"/>
      <use xlink:href="#ArialMT-65" transform="translate(311.230469 0)"/>
      <use xlink:href="#ArialMT-64" transform="translate(366.845703 0)"/>
      <use xlink:href="#ArialMT-20" transform="translate(422.460938 0)"/>
      <use xlink:href="#ArialMT-43" transform="translate(450.244141 0)"/>
      <use xlink:href="#ArialMT-65" transform="translate(522.460938 0)"/>
      <use xlink:href="#ArialMT-6c" transform="translate(578.076172 0)"/>
      <use xlink:href="#ArialMT-6c" transform="translate(600.292969 0)"/>
      <use xlink:href="#ArialMT-75" transform="translate(622.509766 0)"/>
      <use xlink:href="#ArialMT-6c" transform="translate(678.125 0)"/>
      <use xlink:href="#ArialMT-61" transform="translate(700.341797 0)"/>
      <use xlink:href="#ArialMT-72" transform="translate(755.957031 0)"/>
      <use xlink:href="#ArialMT-20" transform="translate(789.257812 0)"/>
      <use xlink:href="#ArialMT-74" transform="translate(817.041016 0)"/>
      <use xlink:href="#ArialMT-61" transform="translate(844.824219 0)"/>
      <use xlink:href="#ArialMT-72" transform="translate(900.439453 0)"/>
      <use xlink:href="#ArialMT-67" transform="translate(933.740234 0)"/>
      <use xlink:href="#ArialMT-65" transform="translate(989.355469 0)"/>
      <use xlink:href="#ArialMT-74" transform="translate(1044.970703 0)"/>
      <use xlink:href="#ArialMT-73" transform="translate(1072.753906 0)"/>
     </g>
    </g>
   </g>
  </g>
 </g>
 <defs>
  <clipPath id="p898a8323bf">
   <rect x="53.575" y="55.028891" width="272.868146" height="189.4995"/>
  </clipPath>
 </defs>
</svg>
